<?xml version="1.0" encoding="UTF-8" standalone="no"?>
<svg height="1024" viewBox="0 0 1024 1024" width="1024" xmlns="http://www.w3.org/2000/svg">
<defs>
<linearGradient id="bg" gradientTransform="matrix(0 824 -824 0 100 100)" gradientUnits="userSpaceOnUse" x1="0" x2="1" y1="0" y2="0">
<stop offset="0" stop-color="#7405e8"/>
<stop offset="0.5" stop-color="#5309e8"/>
<stop offset="1" stop-color="#0511e8"/>
</linearGradient>
<radialGradient id="hex" cx="0" cy="0" gradientTransform="matrix(0.985893 704.258 -704.258 0.985893 511.969 72.2699)" gradientUnits="userSpaceOnUse" r="1">
<stop offset="0" stop-color="#381e95"/>
<stop offset="0.69958" stop-color="#260b85"/>
<stop offset="1" stop-color="#1c056c"/>
</radialGradient>
<linearGradient id="fgrad" gradientTransform="matrix(-1.40063 565.496 -565.496 -1.40063 514.381 228.772)" gradientUnits="userSpaceOnUse" x1="0" x2="1" y1="0" y2="0">
<stop offset="0" stop-color="#ffffff"/>
<stop offset="1" stop-color="#c1c3e5"/>
</linearGradient>
</defs>
<path d="M924 356.63C924 346.85 924.004 337.06 923.944 327.28C923.895 319.04 923.8 310.8 923.576 302.56C923.092 284.61 922.033 266.5 918.84 248.75C915.602 230.741 910.314 213.98 901.981 197.617C893.789 181.534 883.088 166.817 870.32 154.058C857.555 141.299 842.834 130.605 826.746 122.418C810.366 114.083 793.587 108.797 775.558 105.56C757.803 102.372 739.691 101.315 721.738 100.83C713.495 100.607 705.253 100.513 697.008 100.462C687.22 100.402 677.432 100.407 667.644 100.407L553.997 100L468.997 100L357.361 100.407C347.554 100.407 337.747 100.402 327.94 100.462C319.678 100.513 311.42 100.607 303.161 100.83C285.167 101.315 267.014 102.373 249.217 105.565C231.164 108.801 214.36 114.085 197.958 122.414C181.835 130.602 167.083 141.297 154.291 154.058C141.501 166.816 130.78 181.53 122.573 197.61C114.217 213.981 108.919 230.752 105.673 248.77C102.477 266.52 101.418 284.62 100.931 302.56C100.709 310.8 100.613 319.04 100.563 327.28C100.503 337.06 100 349.22 100 359L100.003 469.09L100 555L100.508 667.43C100.508 677.22 100.504 687.02 100.563 696.81C100.613 705.07 100.709 713.32 100.932 721.57C101.418 739.54 102.479 757.67 105.678 775.45C108.923 793.48 114.22 810.27 122.569 826.65C130.777 842.76 141.5 857.5 154.291 870.27C167.082 883.05 181.83 893.76 197.95 901.96C214.362 910.3 231.174 915.6 249.238 918.84C267.027 922.03 285.174 923.09 303.161 923.57C311.42 923.8 319.679 923.89 327.941 923.94C337.748 924 347.554 924 357.361 924L470.006 924L555.217 924L667.644 924C677.432 924 687.22 924 697.008 923.94C705.253 923.89 713.495 923.8 721.738 923.57C739.698 923.09 757.816 922.03 775.579 918.83C793.597 915.59 810.368 910.3 826.739 901.96C842.831 893.76 857.554 883.05 870.32 870.27C883.086 857.5 893.786 842.76 901.978 826.66C910.316 810.27 915.604 793.48 918.844 775.43C922.034 757.66 923.092 739.53 923.577 721.57C923.8 713.32 923.895 705.07 923.944 696.81C924.005 687.02 924 677.22 924 667.43C924 667.43 923.994 556.98 923.994 555L923.994 469C923.994 467.53 924 356.63 924 356.63" fill="url(#bg)" fill-rule="evenodd"/>
<path d="M670.529 257.525L811.646 501.948C814.852 507.5 814.852 516.501 811.646 522.052L670.528 766.475C667.323 772.027 659.528 776.527 653.118 776.527L370.882 776.527C364.472 776.527 356.677 772.027 353.471 766.475L212.354 522.052C209.148 516.5 209.148 507.5 212.354 501.948L353.471 257.525C356.677 251.973 364.472 247.472 370.882 247.472L653.118 247.473C659.528 247.473 667.323 251.973 670.529 257.525Z" fill="url(#hex)" fill-rule="nonzero"/>
<path d="M373.216 228.553C359.478 228.553 342.778 238.208 335.909 250.105L197.152 490.448C190.283 502.346 190.283 521.654 197.152 533.552L335.909 773.895C342.778 785.792 359.478 795.447 373.216 795.447L378.583 795.447C386.173 795.447 392.325 789.294 392.325 781.705L392.325 599.79C392.325 594.098 396.939 589.484 402.631 589.484L783.369 589.484C789.509 589.484 796.959 585.206 800.09 579.903L826.848 533.552C833.717 521.654 833.717 502.346 826.848 490.448L822.742 483.363C819.732 478.15 812.416 473.916 806.397 473.915L402.631 473.915C396.939 473.915 392.325 469.301 392.325 463.609L392.325 353.14C392.325 347.448 396.939 342.834 402.631 342.834L723.169 342.834C733.358 342.834 737.5 335.684 732.429 326.865L688.091 250.105C681.222 238.208 664.522 228.553 650.784 228.553L373.216 228.553Z" fill="url(#fgrad)" fill-rule="nonzero"/>
</svg>
