<?xml version="1.0" encoding="UTF-8" standalone="no"?>
<svg height="1024" viewBox="0 0 1024 1024" width="1024" xmlns="http://www.w3.org/2000/svg">
<defs>
<linearGradient id="fgrad" gradientTransform="matrix(-1.40063 565.496 -565.496 -1.40063 514.381 228.772)" gradientUnits="userSpaceOnUse" x1="0" x2="1" y1="0" y2="0">
<stop offset="0" stop-color="#ffffff"/>
<stop offset="1" stop-color="#c1c3e5"/>
</linearGradient>
</defs>
<path d="M373.216 228.553C359.478 228.553 342.778 238.208 335.909 250.105L197.152 490.448C190.283 502.346 190.283 521.654 197.152 533.552L335.909 773.895C342.778 785.792 359.478 795.447 373.216 795.447L378.583 795.447C386.173 795.447 392.325 789.294 392.325 781.705L392.325 599.79C392.325 594.098 396.939 589.484 402.631 589.484L783.369 589.484C789.509 589.484 796.959 585.206 800.09 579.903L826.848 533.552C833.717 521.654 833.717 502.346 826.848 490.448L822.742 483.363C819.732 478.15 812.416 473.916 806.397 473.915L402.631 473.915C396.939 473.915 392.325 469.301 392.325 463.609L392.325 353.14C392.325 347.448 396.939 342.834 402.631 342.834L723.169 342.834C733.358 342.834 737.5 335.684 732.429 326.865L688.091 250.105C681.222 238.208 664.522 228.553 650.784 228.553L373.216 228.553Z" fill="url(#fgrad)" fill-rule="nonzero"/>
</svg>
